# xmcd
#
# Track frame offsets:
#	150
#	16320
#	27807
#	42120
#	58607
#	75765
#	90072
#	101004
#	113270
#	126005
#	141420
#	151007
#	166950
#	177725
#	192325
#	206150
#	224647
#
# Disc length: 3218
#
# Revision: 3
# Processed by: cddbd v1.5.1PL0 Copyright (c) Steve Scherf et al.
# Submitted via: ExactAudioCopy v0.90a11
# Normalized: r1:TDELIM( - ),TSWAP
#
DISCID=d60c9011
DTITLE=Various Artist - The Greatest Country Collection Cd 3
DYEAR=1900
DGENRE=
TTITLE0=Billie Jo Spears - Blanket On The Ground
TTITLE1=Patsy Cline - Walkin' After Midnight
TTITLE2=The Bellamy Brothers - If I Said You Had A Beautiful Body
TTITLE3=Grant and Forsyth - Torn Between Two Lovers
TTITLE4=John Denver - Calypso
TTITLE5=George Jones - Good Year For Th eRoses
TTITLE6=The Shirelles - To Know Him Is To Love Him
TTITLE7=Freddy Fender - Wasted Days And Wasted Nights
TTITLE8=Lynn Anderson - Top Of The World
TTITLE9=Piet Veerman - You Needed Me
TTITLE10=Pat Boone - Bernadine
TTITLE11=Toni Wille - Desperado
TTITLE12=Hank Locklin - Send Me The Pillow
TTITLE13=Sandra Van Pillow - The French Song
TTITLE14=Albert West - O What A Thrill
TTITLE15=Saskia and Serge - Medley
TTITLE16=Wynonna Judd - Tell Me Why
EXTD=
EXTT0=
EXTT1=
EXTT2=
EXTT3=
EXTT4=
EXTT5=
EXTT6=
EXTT7=
EXTT8=
EXTT9=
EXTT10=
EXTT11=
EXTT12=
EXTT13=
EXTT14=
EXTT15=
EXTT16=
PLAYORDER=
